<?xml version="1.0" encoding="UTF-8"?>
<svg id="_レイヤー_1" xmlns="http://www.w3.org/2000/svg" version="1.1" viewBox="0 0 76.54 76.54">
  <!-- Generator: Adobe Illustrator 29.0.0, SVG Export Plug-In . SVG Version: 2.1.0 Build 186)  -->
  <defs>
    <style>
      .st0 {
        fill: #e5ae00;
      }

      .st0, .st1 {
        stroke: #73584a;
        stroke-linecap: round;
        stroke-linejoin: round;
        stroke-width: 3px;
      }

      .st2 {
        fill: #fff9b7;
      }

      .st1 {
        fill: none;
      }

      .st3 {
        fill: #fbe700;
      }
    </style>
  </defs>
  <path class="st0" d="M18.3,41.71"/>
  <path class="st3" d="M2.93,38.26c0,4.33,11.1,4.61,11.1,3.31v-6.62c0-1.31-11.1-1.02-11.1,3.31"/>
  <path class="st3" d="M73.6,38.26c0,4.33-11.1,4.61-11.1,3.31v-6.62c0-1.3,11.1-1.02,11.1,3.31"/>
  <path class="st3" d="M7.67,55.93c2.16,3.75,11.91-1.56,11.26-2.68s-1.65-2.86-1.65-2.86c0,0-1-1.73-1.65-2.86s-10.12,4.67-7.96,8.41"/>
  <path class="st3" d="M68.87,20.6c2.16,3.75-7.3,9.54-7.96,8.41s-1.65-2.86-1.65-2.86c0,0-1-1.73-1.65-2.86s9.1-6.43,11.26-2.68"/>
  <path class="st3" d="M20.6,68.87c3.75,2.16,9.54-7.3,8.41-7.96s-2.86-1.65-2.86-1.65c0,0-1.73-1-2.86-1.65s-6.43,9.1-2.68,11.26"/>
  <path class="st3" d="M55.94,7.66c3.75,2.16-1.56,11.91-2.68,11.26s-2.86-1.65-2.86-1.65c0,0-1.73-1-2.86-1.65s4.67-10.12,8.41-7.96"/>
  <path class="st3" d="M38.27,73.6c4.33,0,4.61-11.1,3.31-11.1h-6.62c-1.31,0-1.02,11.1,3.31,11.1"/>
  <path class="st3" d="M38.27,2.93c4.33,0,4.61,11.1,3.31,11.1h-6.62c-1.31,0-1.02-11.1,3.31-11.1"/>
  <path class="st3" d="M55.94,68.87c3.75-2.16-1.56-11.91-2.68-11.26s-2.86,1.65-2.86,1.65c0,0-1.73,1-2.86,1.65s4.67,10.12,8.41,7.96"/>
  <path class="st3" d="M20.6,7.66c3.75-2.16,9.54,7.3,8.41,7.96s-2.86,1.65-2.86,1.65c0,0-1.73,1-2.86,1.65s-6.43-9.1-2.68-11.26"/>
  <path class="st3" d="M68.87,55.93c2.16-3.75-7.3-9.54-7.96-8.41s-1.65,2.86-1.65,2.86c0,0-1,1.73-1.65,2.86-.65,1.13,9.1,6.43,11.26,2.68"/>
  <path class="st3" d="M7.67,20.6c2.16-3.75,11.91,1.56,11.26,2.68s-1.65,2.86-1.65,2.86c0,0-1,1.73-1.65,2.86s-10.12-4.67-7.96-8.41"/>
  <ellipse class="st2" cx="38.27" cy="5.87" rx="2.09" ry="2.94"/>
  <ellipse class="st2" cx="38.27" cy="70.66" rx="2.09" ry="2.94"/>
  <ellipse class="st2" cx="22.07" cy="10.22" rx="2.09" ry="2.94" transform="translate(-2.15 12.4) rotate(-30)"/>
  <ellipse class="st2" cx="54.47" cy="66.32" rx="2.09" ry="2.94" transform="translate(-25.86 36.12) rotate(-30)"/>
  <ellipse class="st2" cx="10.22" cy="22.06" rx="2.09" ry="2.94" transform="translate(-14 19.88) rotate(-60)"/>
  <ellipse class="st2" cx="66.33" cy="54.46" rx="2.09" ry="2.94" transform="translate(-14 84.67) rotate(-60)"/>
  <ellipse class="st2" cx="5.87" cy="38.26" rx="2.94" ry="2.09"/>
  <ellipse class="st2" cx="70.67" cy="38.26" rx="2.94" ry="2.09"/>
  <ellipse class="st2" cx="10.21" cy="54.47" rx="2.94" ry="2.09" transform="translate(-25.87 12.4) rotate(-30)"/>
  <ellipse class="st2" cx="66.33" cy="22.07" rx="2.94" ry="2.09" transform="translate(-2.15 36.12) rotate(-30)"/>
  <ellipse class="st2" cx="22.07" cy="66.32" rx="2.94" ry="2.09" transform="translate(-46.4 52.27) rotate(-60)"/>
  <ellipse class="st2" cx="54.48" cy="10.2" rx="2.94" ry="2.09" transform="translate(18.4 52.28) rotate(-60)"/>
  <path class="st1" d="M2.93,38.26c0,4.33,11.1,4.61,11.1,3.31v-6.62c0-1.31-11.1-1.02-11.1,3.31"/>
  <path class="st1" d="M73.6,38.26c0,4.33-11.1,4.61-11.1,3.31v-6.62c0-1.3,11.1-1.02,11.1,3.31"/>
  <path class="st1" d="M7.67,55.93c2.16,3.75,11.91-1.56,11.26-2.68s-1.65-2.86-1.65-2.86c0,0-1-1.73-1.65-2.86s-10.12,4.67-7.96,8.41"/>
  <path class="st1" d="M68.87,20.6c2.16,3.75-7.3,9.54-7.96,8.41s-1.65-2.86-1.65-2.86c0,0-1-1.73-1.65-2.86s9.1-6.43,11.26-2.68"/>
  <path class="st1" d="M20.6,68.87c3.75,2.16,9.54-7.3,8.41-7.96s-2.86-1.65-2.86-1.65c0,0-1.73-1-2.86-1.65s-6.43,9.1-2.68,11.26"/>
  <path class="st1" d="M55.94,7.66c3.75,2.16-1.56,11.91-2.68,11.26s-2.86-1.65-2.86-1.65c0,0-1.73-1-2.86-1.65s4.67-10.12,8.41-7.96"/>
  <path class="st1" d="M38.27,73.6c4.33,0,4.61-11.1,3.31-11.1h-6.62c-1.31,0-1.02,11.1,3.31,11.1"/>
  <path class="st1" d="M38.27,2.93c4.33,0,4.61,11.1,3.31,11.1h-6.62c-1.31,0-1.02-11.1,3.31-11.1"/>
  <path class="st1" d="M55.94,68.87c3.75-2.16-1.56-11.91-2.68-11.26s-2.86,1.65-2.86,1.65c0,0-1.73,1-2.86,1.65s4.67,10.12,8.41,7.96"/>
  <path class="st1" d="M20.6,7.66c3.75-2.16,9.54,7.3,8.41,7.96s-2.86,1.65-2.86,1.65c0,0-1.73,1-2.86,1.65s-6.43-9.1-2.68-11.26"/>
  <path class="st1" d="M68.87,55.93c2.16-3.75-7.3-9.54-7.96-8.41s-1.65,2.86-1.65,2.86c0,0-1,1.73-1.65,2.86-.65,1.13,9.1,6.43,11.26,2.68"/>
  <path class="st1" d="M7.67,20.6c2.16-3.75,11.91,1.56,11.26,2.68s-1.65,2.86-1.65,2.86c0,0-1,1.73-1.65,2.86s-10.12-4.67-7.96-8.41"/>
</svg>