<?xml version="1.0" encoding="UTF-8"?>
<svg id="_レイヤー_1" data-name="レイヤー_1" xmlns="http://www.w3.org/2000/svg" version="1.1" viewBox="0 0 595.28 841.89">
  <!-- Generator: Adobe Illustrator 29.0.0, SVG Export Plug-In . SVG Version: 2.1.0 Build 186)  -->
  <defs>
    <style>
      .st0 {
        fill: #fff9b7;
      }

      .st1 {
        fill: #fbe700;
      }

      .st2 {
        fill: none;
      }

      .st2, .st3 {
        stroke: #73584a;
        stroke-linecap: round;
        stroke-linejoin: round;
        stroke-width: 3px;
      }

      .st3 {
        fill: #e5ae00;
      }
    </style>
  </defs>
  <path class="st3" d="M277.67,424.39"/>
  <path class="st1" d="M262.3,420.94c0,4.33,11.1,4.61,11.1,3.31,0-1.3,0-3.31,0-3.31,0,0,0-2,0-3.31s-11.1-1.02-11.1,3.31"/>
  <path class="st1" d="M332.97,420.94c0,4.33-11.1,4.61-11.1,3.31,0-1.3,0-3.31,0-3.31,0,0,0-2,0-3.31,0-1.3,11.1-1.02,11.1,3.31"/>
  <path class="st1" d="M267.04,438.61c2.16,3.75,11.91-1.56,11.26-2.68s-1.65-2.86-1.65-2.86c0,0-1-1.73-1.65-2.86s-10.12,4.67-7.96,8.41"/>
  <path class="st1" d="M328.24,403.28c2.16,3.75-7.3,9.54-7.96,8.41s-1.65-2.86-1.65-2.86c0,0-1-1.73-1.65-2.86s9.1-6.43,11.26-2.68"/>
  <path class="st1" d="M279.97,451.55c3.75,2.16,9.54-7.3,8.41-7.96s-2.86-1.65-2.86-1.65c0,0-1.73-1-2.86-1.65s-6.43,9.1-2.68,11.26"/>
  <path class="st1" d="M315.31,390.34c3.75,2.16-1.56,11.91-2.68,11.26s-2.86-1.65-2.86-1.65c0,0-1.73-1-2.86-1.65s4.67-10.12,8.41-7.96"/>
  <path class="st1" d="M297.64,456.28c4.33,0,4.61-11.1,3.31-11.1s-3.31,0-3.31,0c0,0-2,0-3.31,0s-1.02,11.1,3.31,11.1"/>
  <path class="st1" d="M297.64,385.61c4.33,0,4.61,11.1,3.31,11.1s-3.31,0-3.31,0c0,0-2,0-3.31,0s-1.02-11.1,3.31-11.1"/>
  <path class="st1" d="M315.31,451.55c3.75-2.16-1.56-11.91-2.68-11.26s-2.86,1.65-2.86,1.65c0,0-1.73,1-2.86,1.65s4.67,10.12,8.41,7.96"/>
  <path class="st1" d="M279.97,390.34c3.75-2.16,9.54,7.3,8.41,7.96s-2.86,1.65-2.86,1.65c0,0-1.73,1-2.86,1.65s-6.43-9.1-2.68-11.26"/>
  <path class="st1" d="M328.24,438.61c2.16-3.75-7.3-9.54-7.96-8.41s-1.65,2.86-1.65,2.86c0,0-1,1.73-1.65,2.86-.65,1.13,9.1,6.43,11.26,2.68"/>
  <path class="st1" d="M267.04,403.28c2.16-3.75,11.91,1.56,11.26,2.68s-1.65,2.86-1.65,2.86c0,0-1,1.73-1.65,2.86s-10.12-4.67-7.96-8.41"/>
  <ellipse class="st0" cx="297.64" cy="388.55" rx="2.09" ry="2.94"/>
  <ellipse class="st0" cx="297.64" cy="453.34" rx="2.09" ry="2.94"/>
  <ellipse class="st0" cx="281.44" cy="392.89" rx="2.09" ry="2.94" transform="translate(-158.74 193.36) rotate(-30)"/>
  <ellipse class="st0" cx="313.84" cy="449" rx="2.09" ry="2.94" transform="translate(-182.46 217.07) rotate(-30)"/>
  <ellipse class="st0" cx="269.58" cy="404.75" rx="2.09" ry="2.94" transform="translate(-215.73 435.83) rotate(-60)"/>
  <ellipse class="st0" cx="325.7" cy="437.14" rx="2.09" ry="2.94" transform="translate(-215.73 500.63) rotate(-60)"/>
  <ellipse class="st0" cx="265.24" cy="420.94" rx="2.94" ry="2.09"/>
  <ellipse class="st0" cx="330.04" cy="420.94" rx="2.94" ry="2.09"/>
  <ellipse class="st0" cx="269.58" cy="437.14" rx="2.94" ry="2.09" transform="translate(-182.46 193.36) rotate(-30)"/>
  <ellipse class="st0" cx="325.7" cy="404.75" rx="2.94" ry="2.09" transform="translate(-158.74 217.07) rotate(-30)"/>
  <ellipse class="st0" cx="281.44" cy="449" rx="2.94" ry="2.09" transform="translate(-248.13 468.23) rotate(-60)"/>
  <ellipse class="st0" cx="313.84" cy="392.89" rx="2.94" ry="2.09" transform="translate(-183.33 468.23) rotate(-60)"/>
  <path class="st2" d="M262.3,420.94c0,4.33,11.1,4.61,11.1,3.31,0-1.3,0-3.31,0-3.31,0,0,0-2,0-3.31s-11.1-1.02-11.1,3.31"/>
  <path class="st2" d="M332.97,420.94c0,4.33-11.1,4.61-11.1,3.31,0-1.3,0-3.31,0-3.31,0,0,0-2,0-3.31,0-1.3,11.1-1.02,11.1,3.31"/>
  <path class="st2" d="M267.04,438.61c2.16,3.75,11.91-1.56,11.26-2.68s-1.65-2.86-1.65-2.86c0,0-1-1.73-1.65-2.86s-10.12,4.67-7.96,8.41"/>
  <path class="st2" d="M328.24,403.28c2.16,3.75-7.3,9.54-7.96,8.41s-1.65-2.86-1.65-2.86c0,0-1-1.73-1.65-2.86s9.1-6.43,11.26-2.68"/>
  <path class="st2" d="M279.97,451.55c3.75,2.16,9.54-7.3,8.41-7.96s-2.86-1.65-2.86-1.65c0,0-1.73-1-2.86-1.65s-6.43,9.1-2.68,11.26"/>
  <path class="st2" d="M315.31,390.34c3.75,2.16-1.56,11.91-2.68,11.26s-2.86-1.65-2.86-1.65c0,0-1.73-1-2.86-1.65s4.67-10.12,8.41-7.96"/>
  <path class="st2" d="M297.64,456.28c4.33,0,4.61-11.1,3.31-11.1s-3.31,0-3.31,0c0,0-2,0-3.31,0s-1.02,11.1,3.31,11.1"/>
  <path class="st2" d="M297.64,385.61c4.33,0,4.61,11.1,3.31,11.1s-3.31,0-3.31,0c0,0-2,0-3.31,0s-1.02-11.1,3.31-11.1"/>
  <path class="st2" d="M315.31,451.55c3.75-2.16-1.56-11.91-2.68-11.26s-2.86,1.65-2.86,1.65c0,0-1.73,1-2.86,1.65s4.67,10.12,8.41,7.96"/>
  <path class="st2" d="M279.97,390.34c3.75-2.16,9.54,7.3,8.41,7.96s-2.86,1.65-2.86,1.65c0,0-1.73,1-2.86,1.65s-6.43-9.1-2.68-11.26"/>
  <path class="st2" d="M328.24,438.61c2.16-3.75-7.3-9.54-7.96-8.41s-1.65,2.86-1.65,2.86c0,0-1,1.73-1.65,2.86-.65,1.13,9.1,6.43,11.26,2.68"/>
  <path class="st2" d="M267.04,403.28c2.16-3.75,11.91,1.56,11.26,2.68s-1.65,2.86-1.65,2.86c0,0-1,1.73-1.65,2.86s-10.12-4.67-7.96-8.41"/>
</svg>