<?xml version="1.0" encoding="UTF-8"?>
<svg id="_レイヤー_3" data-name="レイヤー_3" xmlns="http://www.w3.org/2000/svg" version="1.1" viewBox="0 0 141.73 141.73">
  <!-- Generator: Adobe Illustrator 29.0.0, SVG Export Plug-In . SVG Version: 2.1.0 Build 186)  -->
  <defs>
    <style>
      .st0 {
        fill: none;
      }

      .st0, .st1, .st2, .st3 {
        stroke: #73584a;
        stroke-linecap: round;
        stroke-linejoin: round;
      }

      .st0, .st2 {
        stroke-width: 1.5px;
      }

      .st1 {
        fill: #a7957c;
      }

      .st1, .st3 {
        stroke-width: 2px;
      }

      .st4 {
        fill: #73584a;
      }

      .st2, .st3 {
        fill: #c6b3ac;
      }
    </style>
  </defs>
  <g>
    <path class="st3" d="M21.27,70.87c0,4.96,8.02,9.35,20.36,12.07-6.79,10.63-9.37,19.41-5.87,22.91s12.28.92,22.91-5.87c2.72,12.34,7.11,20.36,12.07,20.36s9.35-8.02,12.07-20.36c10.63,6.79,19.41,9.37,22.91,5.87s.92-12.28-5.87-22.91c12.34-2.72,20.36-7.11,20.36-12.07s-8.02-9.35-20.36-12.07c6.79-10.63,9.37-19.41,5.87-22.91s-12.28-.92-22.91,5.87c-2.72-12.34-7.11-20.36-12.07-20.36s-9.35,8.02-12.07,20.36c-10.63-6.79-19.41-9.37-22.91-5.87s-.92,12.28,5.87,22.91c-12.34,2.72-20.36,7.11-20.36,12.07Z"/>
    <g>
      <circle class="st2" cx="95.94" cy="131.71" r="3.55"/>
      <circle class="st2" cx="45.54" cy="10.03" r="3.55"/>
    </g>
    <g>
      <circle class="st1" cx="89.67" cy="116.57" r="8.41"/>
      <circle class="st1" cx="51.81" cy="25.16" r="8.41"/>
    </g>
    <g>
      <circle class="st2" cx="45.54" cy="131.71" r="3.55"/>
      <circle class="st2" cx="95.94" cy="10.03" r="3.55"/>
    </g>
    <g>
      <circle class="st1" cx="51.81" cy="116.57" r="8.41"/>
      <circle class="st1" cx="89.67" cy="25.16" r="8.41"/>
    </g>
    <g>
      <circle class="st2" cx="9.9" cy="96.07" r="3.55"/>
      <circle class="st2" cx="131.58" cy="45.67" r="3.55"/>
    </g>
    <g>
      <circle class="st1" cx="25.04" cy="89.8" r="8.41"/>
      <circle class="st1" cx="116.45" cy="51.94" r="8.41"/>
    </g>
    <g>
      <circle class="st2" cx="9.9" cy="45.67" r="3.55"/>
      <circle class="st2" cx="131.58" cy="96.07" r="3.55"/>
    </g>
    <g>
      <circle class="st1" cx="25.04" cy="51.94" r="8.41"/>
      <circle class="st1" cx="116.45" cy="89.8" r="8.41"/>
    </g>
  </g>
  <g>
    <polyline class="st0" points="66.06 81.62 70.74 77.15 75.42 81.62"/>
    <path class="st4" d="M53.96,60.94c-1.36,1.17-2.29,3.49-2.29,6.2,0,3.88,1.9,7.02,4.24,7.02s4.24-3.14,4.24-7.02l-6.2-6.2Z"/>
    <path class="st4" d="M87.68,60.94c1.36,1.17,2.29,3.49,2.29,6.2,0,3.88-1.9,7.02-4.24,7.02-2.34,0-4.24-3.14-4.24-7.02l6.2-6.2Z"/>
  </g>
</svg>