<?xml version="1.0" encoding="UTF-8"?>
<svg xmlns="http://www.w3.org/2000/svg" version="1.1" viewBox="0 0 141.73 141.73">
  <!-- Generator: Adobe Illustrator 29.0.0, SVG Export Plug-In . SVG Version: 2.1.0 Build 186)  -->
  <defs>
    <style>
      .st0 {
        fill: #adc597;
      }

      .st0, .st1, .st2, .st3, .st4, .st5 {
        stroke: #73584a;
        stroke-linecap: round;
        stroke-linejoin: round;
      }

      .st0, .st2, .st4, .st5 {
        stroke-width: 2px;
      }

      .st1 {
        fill: none;
      }

      .st1, .st3 {
        stroke-width: 1.5px;
      }

      .st2 {
        fill: #a7957c;
      }

      .st6 {
        fill: #73584a;
      }

      .st7 {
        display: none;
      }

      .st3, .st5 {
        fill: #c6b3ac;
      }

      .st4 {
        fill: #fff;
      }
    </style>
  </defs>
  <g id="_レイヤー_2" data-name="レイヤー_2">
    <polygon class="st0" points="114.04 48.58 93.03 48.58 93.03 27.57 48.45 27.57 48.45 48.58 27.45 48.58 27.45 93.16 48.45 93.16 48.45 114.16 93.03 114.16 93.03 93.16 114.04 93.16 114.04 48.58"/>
    <g>
      <rect class="st0" x="63.81" y="12.51" width="13.85" height="13.85" transform="translate(34.46 -44.33) rotate(45)"/>
      <rect class="st0" x="63.81" y="115.37" width="13.85" height="13.85" transform="translate(107.2 -14.2) rotate(45)"/>
      <rect class="st0" x="115.25" y="63.94" width="13.85" height="13.85" transform="translate(258.68 34.59) rotate(135)"/>
      <rect class="st0" x="12.38" y="63.94" width="13.85" height="13.85" transform="translate(83.07 107.33) rotate(135)"/>
    </g>
    <g>
      <rect class="st0" x="23.75" y="104.01" width="13.85" height="13.85" transform="translate(87.43 10.8) rotate(45)"/>
      <rect class="st0" x="103.88" y="23.87" width="13.85" height="13.85" transform="translate(210.94 -25.78) rotate(135)"/>
    </g>
    <g>
      <rect class="st0" x="23.75" y="23.87" width="13.85" height="13.85" transform="translate(74.14 30.89) rotate(135)"/>
      <rect class="st0" x="103.88" y="104.01" width="13.85" height="13.85" transform="translate(110.72 267.73) rotate(-135)"/>
    </g>
    <g>
      <line class="st4" x1="65.62" y1="87.9" x2="75.87" y2="87.9"/>
      <rect class="st4" x="50.04" y="67.69" width="9.42" height="7.07"/>
      <rect class="st4" x="82.02" y="67.69" width="9.42" height="7.07"/>
    </g>
  </g>
  <g id="_レイヤー_4" data-name="レイヤー_4" class="st7">
    <path class="st5" d="M25.04,89.8c1.9,4.58,10.99,5.57,23.43,3.36-2.2,12.42-1.23,21.52,3.35,23.41s11.7-3.85,18.92-14.19c7.23,10.36,14.36,16.09,18.94,14.19s5.57-10.99,3.36-23.43c12.42,2.2,21.52,1.23,23.41-3.35s-3.85-11.7-14.19-18.92c10.36-7.23,16.09-14.36,14.19-18.94s-10.99-5.57-23.43-3.36c2.2-12.42,1.23-21.52-3.35-23.41s-11.7,3.85-18.92,14.19c-7.23-10.36-14.36-16.09-18.94-14.19s-5.57,10.99-3.36,23.43c-12.42-2.2-21.52-1.23-23.41,3.35s3.85,11.7,14.19,18.92c-10.36,7.23-16.09,14.36-14.19,18.94Z"/>
    <g>
      <path class="st3" d="M74.3,136.72c0,1.96-1.59,3.55-3.55,3.55s-3.55-1.59-3.55-3.55,1.59-3.55,3.55-3.55,3.55,1.59,3.55,3.55Z"/>
      <circle class="st3" cx="70.74" cy="5.02" r="3.55"/>
    </g>
    <g>
      <circle class="st2" cx="70.74" cy="120.34" r="8.41"/>
      <path class="st2" d="M79.15,21.4c0,4.64-3.76,8.41-8.41,8.41-4.64,0-8.41-3.76-8.41-8.41,0-4.64,3.76-8.41,8.41-8.41s8.41,3.76,8.41,8.41Z"/>
    </g>
    <g>
      <circle class="st3" cx="24.18" cy="117.43" r="3.55"/>
      <circle class="st3" cx="117.31" cy="24.3" r="3.55"/>
    </g>
    <g>
      <circle class="st2" cx="35.76" cy="105.85" r="8.41"/>
      <circle class="st2" cx="105.72" cy="35.89" r="8.41"/>
    </g>
    <g>
      <circle class="st3" cx="4.89" cy="70.87" r="3.55"/>
      <circle class="st3" cx="136.59" cy="70.87" r="3.55"/>
    </g>
    <g>
      <circle class="st2" cx="21.27" cy="70.87" r="8.41"/>
      <circle class="st2" cx="120.21" cy="70.87" r="8.41"/>
    </g>
    <g>
      <circle class="st3" cx="24.18" cy="24.3" r="3.55"/>
      <circle class="st3" cx="117.31" cy="117.43" r="3.55"/>
    </g>
    <g>
      <circle class="st2" cx="35.76" cy="35.89" r="8.41"/>
      <circle class="st2" cx="105.72" cy="105.85" r="8.41"/>
    </g>
    <g>
      <polyline class="st1" points="66.06 81.62 70.74 77.15 75.42 81.62"/>
      <path class="st6" d="M53.96,60.94c-1.36,1.17-2.29,3.49-2.29,6.2,0,3.88,1.9,7.02,4.24,7.02s4.24-3.14,4.24-7.02l-6.2-6.2Z"/>
      <path class="st6" d="M87.68,60.94c1.36,1.17,2.29,3.49,2.29,6.2,0,3.88-1.9,7.02-4.24,7.02-2.34,0-4.24-3.14-4.24-7.02l6.2-6.2Z"/>
    </g>
  </g>
</svg>