<?xml version="1.0" encoding="UTF-8"?>
<svg id="_レイヤー_1" data-name="レイヤー_1" xmlns="http://www.w3.org/2000/svg" version="1.1" viewBox="0 0 141.73 141.73">
  <!-- Generator: Adobe Illustrator 29.0.0, SVG Export Plug-In . SVG Version: 2.1.0 Build 186)  -->
  <defs>
    <style>
      .st0 {
        fill: #adc597;
      }

      .st0, .st1 {
        stroke: #73584a;
        stroke-linecap: round;
        stroke-linejoin: round;
        stroke-width: 2px;
      }

      .st1 {
        fill: #fff;
      }
    </style>
  </defs>
  <g>
    <polygon class="st0" points="114.04 48.58 93.03 48.58 93.03 27.57 48.45 27.57 48.45 48.58 27.45 48.58 27.45 93.16 48.45 93.16 48.45 114.16 93.03 114.16 93.03 93.16 114.04 93.16 114.04 48.58"/>
    <g>
      <rect class="st0" x="27.45" y="27.57" width="13.85" height="13.85"/>
      <rect class="st0" x="100.18" y="100.31" width="13.85" height="13.85"/>
      <rect class="st0" x="100.18" y="27.57" width="13.85" height="13.85" transform="translate(141.61 -72.61) rotate(90)"/>
      <rect class="st0" x="27.45" y="100.31" width="13.85" height="13.85" transform="translate(141.61 72.86) rotate(90)"/>
    </g>
    <g>
      <rect class="st0" x="63.81" y="120.61" width="13.85" height="13.85"/>
      <rect class="st0" x="63.81" y="7.28" width="13.85" height="13.85" transform="translate(84.94 -56.54) rotate(90)"/>
    </g>
    <g>
      <rect class="st0" x="7.15" y="63.94" width="13.85" height="13.85" transform="translate(84.94 56.79) rotate(90)"/>
      <rect class="st0" x="120.48" y="63.94" width="13.85" height="13.85" transform="translate(254.81 141.74) rotate(180)"/>
    </g>
  </g>
  <g>
    <line class="st1" x1="65.62" y1="87.9" x2="75.87" y2="87.9"/>
    <rect class="st1" x="50.04" y="67.69" width="9.42" height="7.07"/>
    <rect class="st1" x="82.02" y="67.69" width="9.42" height="7.07"/>
  </g>
</svg>