<?xml version="1.0" encoding="UTF-8"?>
<svg id="_レイヤー_5" data-name="レイヤー_5" xmlns="http://www.w3.org/2000/svg" version="1.1" viewBox="0 0 141.73 141.73">
  <!-- Generator: Adobe Illustrator 29.0.0, SVG Export Plug-In . SVG Version: 2.1.0 Build 186)  -->
  <defs>
    <style>
      .st0, .st1 {
        fill: none;
      }

      .st0, .st1, .st2, .st3, .st4 {
        stroke: #73584a;
        stroke-linecap: round;
        stroke-linejoin: round;
      }

      .st0, .st3, .st4 {
        stroke-width: 2px;
      }

      .st1, .st2 {
        stroke-width: 3px;
      }

      .st2 {
        fill: #d4ccd1;
      }

      .st3 {
        fill: #fff;
      }

      .st4 {
        fill: #c6b3ac;
      }
    </style>
  </defs>
  <polygon class="st2" points="120.74 84.27 128.48 70.87 120.74 57.47 120.74 42 107.34 34.27 99.61 20.87 84.14 20.87 70.74 13.13 57.34 20.87 41.87 20.87 34.14 34.27 20.74 42 20.74 57.47 13.01 70.87 20.74 84.27 20.74 99.74 34.14 107.47 41.87 120.87 57.34 120.87 70.74 128.6 84.14 120.87 99.61 120.87 107.34 107.47 120.74 99.74 120.74 84.27"/>
  <polygon class="st1" points="99.61 20.87 41.87 20.87 13.01 70.87 41.87 120.87 99.61 120.87 128.48 70.87 99.61 20.87"/>
  <polygon class="st1" points="20.74 99.74 20.74 42 70.74 13.13 120.74 42 120.74 99.74 70.74 128.6 20.74 99.74"/>
  <g>
    <polyline class="st0" points="64.38 94.46 70.74 92.67 77.11 94.46"/>
    <polygon class="st3" points="56.73 83.11 45.03 80.28 45.03 60.77 56.73 63.9 56.73 83.11"/>
    <polygon class="st3" points="96.46 80.28 84.76 83.11 84.76 63.9 96.46 60.77 96.46 80.28"/>
  </g>
  <g>
    <polygon class="st4" points="55.8 15.09 62.45 7.81 46.39 12.12 55.8 15.09"/>
    <polygon class="st4" points="85.69 126.64 79.03 133.93 95.09 129.62 85.69 126.64"/>
  </g>
  <g>
    <polygon class="st4" points="29.91 30.04 32.04 20.4 20.28 32.16 29.91 30.04"/>
    <polygon class="st4" points="111.57 111.7 109.45 121.33 121.21 109.57 111.57 111.7"/>
  </g>
  <g>
    <polygon class="st4" points="14.97 55.92 11.99 46.52 7.68 62.58 14.97 55.92"/>
    <polygon class="st4" points="126.52 85.81 129.49 95.22 133.8 79.16 126.52 85.81"/>
  </g>
  <g>
    <polygon class="st4" points="14.97 85.81 7.68 79.16 11.99 95.22 14.97 85.81"/>
    <polygon class="st4" points="126.52 55.92 133.8 62.58 129.49 46.52 126.52 55.92"/>
  </g>
  <g>
    <polygon class="st4" points="29.91 111.7 20.28 109.57 32.04 121.33 29.91 111.7"/>
    <polygon class="st4" points="111.57 30.04 121.21 32.16 109.45 20.4 111.57 30.04"/>
  </g>
  <g>
    <polygon class="st4" points="55.8 126.64 46.39 129.62 62.45 133.93 55.8 126.64"/>
    <polygon class="st4" points="85.69 15.09 95.09 12.12 79.03 7.81 85.69 15.09"/>
  </g>
</svg>