<?xml version="1.0" encoding="UTF-8"?>
<svg id="_レイヤー_6" data-name="レイヤー_6" xmlns="http://www.w3.org/2000/svg" version="1.1" viewBox="0 0 141.73 141.73">
  <!-- Generator: Adobe Illustrator 29.0.0, SVG Export Plug-In . SVG Version: 2.1.0 Build 186)  -->
  <defs>
    <style>
      .st0, .st1 {
        fill: none;
      }

      .st0, .st1, .st2, .st3, .st4 {
        stroke: #73584a;
        stroke-linecap: round;
        stroke-linejoin: round;
      }

      .st0, .st3, .st4 {
        stroke-width: 2px;
      }

      .st1, .st2 {
        stroke-width: 3px;
      }

      .st2 {
        fill: #d4ccd1;
      }

      .st3 {
        fill: #fff;
      }

      .st4 {
        fill: #c6b3ac;
      }
    </style>
  </defs>
  <polygon class="st2" points="122.51 70.87 126.51 55.92 115.57 44.99 111.57 30.04 96.62 26.04 85.68 15.1 70.74 19.1 55.8 15.1 44.86 26.04 29.92 30.04 25.91 44.99 14.97 55.92 18.98 70.87 14.97 85.81 25.91 96.75 29.92 111.69 44.86 115.7 55.8 126.64 70.74 122.63 85.68 126.64 96.62 115.7 111.57 111.69 115.57 96.75 126.51 85.81 122.51 70.87"/>
  <polygon class="st1" points="85.68 15.1 29.92 30.04 14.97 85.81 55.8 126.64 111.57 111.69 126.51 55.92 85.68 15.1"/>
  <polygon class="st1" points="29.92 111.69 14.97 55.92 55.8 15.1 111.57 30.04 126.51 85.81 85.68 126.64 29.92 111.69"/>
  <g>
    <polyline class="st0" points="64.38 94.46 70.74 92.67 77.11 94.46"/>
    <polygon class="st3" points="56.73 83.11 45.03 80.28 45.03 60.77 56.73 63.9 56.73 83.11"/>
    <polygon class="st3" points="96.46 80.28 84.76 83.11 84.76 63.9 96.46 60.77 96.46 80.28"/>
  </g>
  <polygon class="st4" points="104.92 130.07 109.47 121.32 95.07 129.63 104.92 130.07"/>
  <polygon class="st4" points="36.56 11.66 32.01 20.42 46.42 12.1 36.56 11.66"/>
  <polygon class="st4" points="129.95 105.05 129.51 95.19 121.19 109.6 129.95 105.05"/>
  <polygon class="st4" points="11.54 36.69 11.98 46.54 20.29 32.14 11.54 36.69"/>
  <polygon class="st4" points="139.1 70.87 133.79 62.55 133.79 79.18 139.1 70.87"/>
  <polygon class="st4" points="2.38 70.87 7.69 79.18 7.69 62.55 2.38 70.87"/>
  <polygon class="st4" points="129.95 36.69 121.19 32.14 129.51 46.54 129.95 36.69"/>
  <polygon class="st4" points="11.54 105.05 20.29 109.6 11.98 95.19 11.54 105.05"/>
  <polygon class="st4" points="104.92 11.66 95.07 12.1 109.47 20.42 104.92 11.66"/>
  <polygon class="st4" points="36.56 130.07 46.42 129.63 32.01 121.32 36.56 130.07"/>
  <polygon class="st4" points="70.74 2.5 62.43 7.81 79.06 7.81 70.74 2.5"/>
  <polygon class="st4" points="70.74 139.23 79.06 133.92 62.43 133.92 70.74 139.23"/>
</svg>