<?xml version="1.0" encoding="UTF-8"?>
<svg id="_レイヤー_1" data-name="レイヤー_1" xmlns="http://www.w3.org/2000/svg" version="1.1" viewBox="0 0 76.54 76.54">
  <!-- Generator: Adobe Illustrator 29.0.0, SVG Export Plug-In . SVG Version: 2.1.0 Build 186)  -->
  <defs>
    <style>
      .st0 {
        fill: none;
        stroke-width: 2px;
      }

      .st0, .st1 {
        stroke: #73584a;
        stroke-linecap: round;
        stroke-linejoin: round;
      }

      .st2 {
        fill: #73584a;
      }

      .st1 {
        fill: #fff;
        stroke-width: 3px;
      }
    </style>
  </defs>
  <path class="st1" d="M7.14,40.93c0-6.34,5.14-11.48,11.48-11.48,1.23,0,2.4.2,3.51.55,0-.16-.02-.32-.02-.49,0-6.34,5.14-11.48,11.48-11.48,4.95,0,9.15,3.13,10.76,7.52,1.45-2.17,3.92-3.6,6.72-3.6,4.46,0,8.08,3.62,8.08,8.08,0,.75-.11,1.47-.3,2.16,5.89.49,10.51,5.42,10.51,11.43,0,6.34-5.14,11.48-11.48,11.48-1.98,0-3.83-.5-5.46-1.38-1.02,3.3-4.09,5.7-7.72,5.7-2.87,0-5.38-1.5-6.81-3.75-1.72,1.03-3.73,1.63-5.88,1.63-1.69,0-3.29-.38-4.74-1.03-1.48,1.59-3.58,2.6-5.92,2.6-4.35,0-7.89-3.45-8.06-7.76-3.66-1.92-6.16-5.75-6.16-10.17Z"/>
  <ellipse class="st2" cx="47.9" cy="38.61" rx="2.64" ry="4.36"/>
  <ellipse class="st2" cx="29.47" cy="38.61" rx="2.64" ry="4.36"/>
  <line class="st0" x1="41.59" y1="47.61" x2="35.77" y2="47.61"/>
</svg>