<?xml version="1.0" encoding="UTF-8"?>
<svg id="_レイヤー_10" data-name="レイヤー_10" xmlns="http://www.w3.org/2000/svg" version="1.1" viewBox="0 0 76.54 76.54">
  <!-- Generator: Adobe Illustrator 29.0.0, SVG Export Plug-In . SVG Version: 2.1.0 Build 186)  -->
  <defs>
    <style>
      .st0 {
        fill: none;
        stroke-width: 2px;
      }

      .st0, .st1 {
        stroke: #73584a;
        stroke-linecap: round;
        stroke-linejoin: round;
      }

      .st1 {
        fill: #d580a7;
        stroke-width: 3px;
      }

      .st2 {
        fill: #73584a;
      }
    </style>
  </defs>
  <path class="st1" d="M46.79,59.77c2.6-1.08,4.38-3.57,5.3-6.88,3.31-.92,5.8-2.7,6.88-5.3,1.08-2.6.58-5.62-1.12-8.61,1.69-2.99,2.2-6.01,1.12-8.61s-3.57-4.38-6.88-5.3c-.92-3.31-2.7-5.8-5.3-6.88-2.6-1.08-5.62-.58-8.61,1.12-2.99-1.69-6.01-2.2-8.61-1.12s-4.38,3.57-5.3,6.88c-3.31.92-5.8,2.7-6.88,5.3s-.58,5.62,1.12,8.61c-1.69,2.99-2.2,6.01-1.12,8.61s3.57,4.38,6.88,5.3c.92,3.31,2.7,5.8,5.3,6.88s5.62.58,8.61-1.12c2.99,1.69,6.01,2.2,8.61,1.12Z"/>
  <ellipse class="st2" cx="30.94" cy="36.9" rx="2.07" ry="3.43"/>
  <ellipse class="st2" cx="45.42" cy="36.9" rx="2.07" ry="3.43"/>
  <line class="st0" x1="35.9" y1="44.91" x2="40.47" y2="44.91"/>
</svg>