<?xml version="1.0" encoding="UTF-8"?>
<svg id="_レイヤー_11" data-name="レイヤー_11" xmlns="http://www.w3.org/2000/svg" version="1.1" viewBox="0 0 76.54 76.54">
  <!-- Generator: Adobe Illustrator 29.0.0, SVG Export Plug-In . SVG Version: 2.1.0 Build 186)  -->
  <defs>
    <style>
      .st0 {
        fill: none;
        stroke-width: 2px;
      }

      .st0, .st1 {
        stroke: #73584a;
        stroke-linecap: round;
        stroke-linejoin: round;
      }

      .st1 {
        fill: #d580a7;
        stroke-width: 3px;
      }

      .st2 {
        fill: #73584a;
      }
    </style>
  </defs>
  <path class="st1" d="M60.69,38.98c0-2.82-1.62-5.41-4.33-7.53.42-3.41-.27-6.39-2.26-8.38s-4.97-2.68-8.38-2.26c-2.11-2.71-4.71-4.33-7.53-4.33s-5.41,1.62-7.53,4.33c-3.41-.42-6.39.27-8.38,2.26s-2.68,4.97-2.26,8.38c-2.71,2.11-4.33,4.71-4.33,7.53s1.62,5.41,4.33,7.53c-.42,3.41.27,6.39,2.26,8.38s4.97,2.68,8.38,2.26c2.11,2.71,4.71,4.33,7.53,4.33s5.41-1.62,7.53-4.33c3.41.42,6.39-.27,8.38-2.26s2.68-4.97,2.26-8.38c2.71-2.11,4.33-4.71,4.33-7.53Z"/>
  <ellipse class="st2" cx="30.94" cy="36.9" rx="2.07" ry="3.43"/>
  <ellipse class="st2" cx="45.42" cy="36.9" rx="2.07" ry="3.43"/>
  <line class="st0" x1="35.9" y1="44.91" x2="40.47" y2="44.91"/>
</svg>