<?xml version="1.0" encoding="UTF-8"?>
<svg id="_レイヤー_4" data-name="レイヤー_4" xmlns="http://www.w3.org/2000/svg" version="1.1" viewBox="0 0 76.54 76.54">
  <!-- Generator: Adobe Illustrator 29.0.0, SVG Export Plug-In . SVG Version: 2.1.0 Build 186)  -->
  <defs>
    <style>
      .st0 {
        fill: #fff;
        stroke-width: 1.5px;
      }

      .st0, .st1 {
        stroke: #73584a;
        stroke-linecap: round;
        stroke-linejoin: round;
      }

      .st1 {
        fill: #e8dae9;
        stroke-width: 3px;
      }

      .st2 {
        fill: #73584a;
      }
    </style>
  </defs>
  <path class="st1" d="M11.33,47.04h.4c-2.78,0-5.05-2.27-5.05-5.05s2.27-5.05,5.05-5.05h5.73c1.07-10.32,9.79-18.37,20.4-18.37,11.33,0,20.51,9.18,20.51,20.51,0,.69-.04,1.37-.1,2.05h7.43c2.28,0,4.14,1.86,4.14,4.14s-1.86,4.14-4.14,4.14h-8.27c1.83,0,3.33,1.5,3.33,3.33s-1.5,3.33-3.33,3.33h-3.69c-.3,1.59-1.7,2.81-3.38,2.81h-27.2c-1.89,0-3.44-1.55-3.44-3.44h0c0-.69.21-1.33.56-1.86h-8.95c-1.8,0-3.27-1.47-3.27-3.27s1.47-3.27,3.27-3.27Z"/>
  <ellipse class="st2" cx="44.91" cy="34.76" rx="2.11" ry="3.49" transform="translate(-5.57 8.73) rotate(-10.47)"/>
  <ellipse class="st2" cx="30.8" cy="34.76" rx="3.49" ry="2.11" transform="translate(-8.98 58.74) rotate(-79.53)"/>
  <path class="st0" d="M34.19,40.58c0,.71,1.64.72,3.66.72s3.66,0,3.66-.72c0-.71-1.64-1.85-3.66-1.85s-3.66,1.14-3.66,1.85Z"/>
</svg>