<?xml version="1.0" encoding="UTF-8"?>
<svg id="_レイヤー_3" data-name="レイヤー_3" xmlns="http://www.w3.org/2000/svg" version="1.1" viewBox="0 0 76.54 76.54">
  <!-- Generator: Adobe Illustrator 29.0.0, SVG Export Plug-In . SVG Version: 2.1.0 Build 186)  -->
  <defs>
    <style>
      .st0 {
        fill: #fff;
        stroke-width: 1.5px;
      }

      .st0, .st1 {
        stroke: #73584a;
        stroke-linecap: round;
        stroke-linejoin: round;
      }

      .st1 {
        fill: #e8dae9;
        stroke-width: 3px;
      }

      .st2 {
        fill: #73584a;
      }
    </style>
  </defs>
  <path class="st1" d="M65.18,47.04h-.4c2.78,0,5.05-2.27,5.05-5.05s-2.27-5.05-5.05-5.05h-5.73c-1.07-10.32-9.79-18.37-20.4-18.37-11.33,0-20.51,9.18-20.51,20.51,0,.69.04,1.37.1,2.05h-7.43c-2.28,0-4.14,1.86-4.14,4.14s1.86,4.14,4.14,4.14h8.27c-1.83,0-3.33,1.5-3.33,3.33s1.5,3.33,3.33,3.33h3.69c.3,1.59,1.7,2.81,3.38,2.81h27.2c1.89,0,3.44-1.55,3.44-3.44h0c0-.69-.21-1.33-.56-1.86h8.95c1.8,0,3.27-1.47,3.27-3.27s-1.47-3.27-3.27-3.27Z"/>
  <ellipse class="st2" cx="31.6" cy="34.76" rx="3.49" ry="2.11" transform="translate(-8.32 59.53) rotate(-79.53)"/>
  <ellipse class="st2" cx="45.71" cy="34.76" rx="2.11" ry="3.49" transform="translate(-5.55 8.88) rotate(-10.47)"/>
  <path class="st0" d="M42.32,40.58c0,.71-1.64.72-3.66.72s-3.66,0-3.66-.72,1.64-1.85,3.66-1.85,3.66,1.14,3.66,1.85Z"/>
</svg>